<svg xmlns="http://www.w3.org/2000/svg" width="1200" height="500" viewBox="0 0 1200 500" fill="none">
  <rect width="1200" height="500" fill="#ffffff"/>
  <circle cx="200" cy="400" r="150" fill="#228be6" fill-opacity="0.08"/>
  <circle cx="150" cy="100" r="100" fill="#ea580c" fill-opacity="0.08"/>
  <rect x="580" y="60" width="520" height="380" rx="20" fill="#f9fafb" stroke="#e5e7eb" stroke-width="2"/>
  <rect x="620" y="100" width="180" height="300" rx="8" fill="#111214"/>
  <rect x="640" y="120" width="140" height="20" rx="4" fill="#374151"/>
  <rect x="640" y="160" width="140" height="8" rx="2" fill="#4b5563"/>
  <rect x="640" y="180" width="140" height="8" rx="2" fill="#4b5563"/>
  <rect x="640" y="200" width="140" height="8" rx="2" fill="#4b5563"/>
  <rect x="820" y="100" width="240" height="140" rx="8" fill="#111214"/>
  <rect x="840" y="120" width="200" height="100" rx="4" fill="#228be6" fill-opacity="0.3"/>
  <rect x="820" y="260" width="110" height="140" rx="8" fill="#202124"/>
  <rect x="950" y="260" width="110" height="140" rx="8" fill="#202124"/>
  <text x="80" y="180" font-family="Montserrat, sans-serif" font-size="44" font-weight="700" fill="#111214">Build Your</text>
  <text x="80" y="235" font-family="Montserrat, sans-serif" font-size="44" font-weight="700" fill="#228be6">Dream PC</text>
  <text x="80" y="285" font-family="Heebo, sans-serif" font-size="20" fill="#868e96">Free Assembly on Custom Builds</text>
</svg>
